#!OML:ASF E:/inclinewalkrobotboard/Project1/Captureday1/Session1/subject1.ASF
:FULLY-SPECIFIED
:DEGREES
388
root 0 0 0 -2.3855176303856647 -5.712866797715472 -5.282053922978248
lowerback 11.701355589729506 2.612993715743676 5.144225646864441
upperback 1.8895962410097087 4.078969120975316 1.0732234988501608
thorax -4.395370091550353 1.9067767642658626 -2.3226718636424923
lowerneck -16.50829968863737 -3.654601095367001 -2.50630450264824
upperneck 20.51973741675249 -4.875005324001435 1.5386049835186393
head 9.088080389003792 -2.292166369495608 0.29540287704131624
rclavicle -2.393021773237893E-15 1.6865978330839206E-15
rhumerus -29.299935125289167 -16.120936502867576 -82.50809436215535
rradius 27.860876585050573
rwrist 11.234358320400496
rhand -20.311279505938376 28.796792404813047
rfingers 7.125019999999995
rthumb 6.060544901708177 -1.2722287479965644
lclavicle -6.492847979893774E-15 9.845895729538867E-16
lhumerus -32.022218050669196 2.4047277941188017 84.08747647587687
lradius 22.706001176227893
lwrist 3.957565117711326
lhand -27.829298409030102 26.90028686908704
lfingers 7.125020000000048
lthumb -1.2342672992503916 56.8987861766495
rfemur 0.6134377226019225 4.600669429687445 24.855937240329474
rtibia 34.151179716493
rfoot -6.194101213297747 -2.698248529657429
rtoes 1.540987640973657
lfemur -21.86488924122282 -3.848683884195174 -16.080700690752582
ltibia 21.6147256613496
lfoot -9.08309989668611 3.6064260658367315
ltoes 0.16791892824294408
389
root 0 0 0 -2.9808995891879624 -5.355797675030045 -3.610775550272025
lowerback 12.039080326982871 2.444212524782207 3.5269849443508914
upperback 2.257734899825219 3.6582927530833294 0.797730617762836
thorax -4.201593767683681 1.7310813583922595 -1.631274830110594
lowerneck -16.214147003649757 -3.701631489605945 -2.6678261608035854
upperneck 20.424262542005707 -4.931078292976885 1.7505892376261807
head 8.991864218811925 -2.3104762488160255 0.38406979855715345
rclavicle -2.3128747103182383E-15 1.7340583601228686E-15
rhumerus -29.806145948168158 -17.425640615230282 -82.28882598866485
rradius 26.98928245598902
rwrist 11.974185310617344
rhand -20.204339128496095 28.23279309175009
rfingers 7.125019999999995
rthumb 6.164299413497351 -1.833557520942577
lclavicle -6.297597605247581E-15 1.0261376072787012E-15
lhumerus -32.86785265665936 3.3322998586712025 83.52468080773636
lradius 22.02397114863011
lwrist 3.4357157639123534
lhand -27.682049196399586 26.95524169654312
lfingers 7.125020000000051
lthumb -1.0955311064278819 56.929730369890656
rfemur -4.710330061080072 2.58269540821272 22.782523551386
rtibia 49.35835252412648
rfoot 1.9342799212713393 -1.8627829624084091
rtoes 6.995802362711389
lfemur -18.166321675651417 -3.9228476077808185 -17.634195598269887
ltibia 21.238853073724194
lfoot -9.53969025443912 2.8190409482352696
ltoes 0.05809773967377296
390
root 0 0 0 -4.873081941030653 -4.656564366913537 0.48991485408212476
lowerback 13.772942293376508 1.5702218337392444 -0.7055379250444094
upperback 2.7377287718616823 2.0082771195911886 0.29254821146601206
thorax -4.710595061906673 1.0028566765560902 0.46215472778140576
lowerneck -15.71671976789273 -3.599738578317196 -2.5106027237009108
upperneck 17.021805636990045 -4.682075345166229 1.769822967215155
head 7.88448453935832 -2.219220368461668 0.43190677530396704
rclavicle -2.8573540939602733E-15 2.1227788732983564E-15
rhumerus -30.427297427048998 -18.891796583595124 -81.97759049724641
rradius 25.972081662461726
rwrist 12.473094794873415
rhand -20.081502990324218 27.651667504565857
rfingers 7.125019999999997
rthumb 6.284253469335071 -2.409998051624605
lclavicle -6.922330242494039E-15 1.4220394828408215E-15
lhumerus -32.360014798511585 2.9760195382931913 83.50943455194408
lradius 22.327975491451017
lwrist 3.671700201791862
lhand -27.834353408482272 26.9560771614484
lfingers 7.12502000000005
lthumb -1.246017542420704 56.943972497966655
rfemur -16.715421992993676 0.8153712694792072 20.196219760267837
rtibia 60.578774368244254
rfoot 5.95839507906482 -3.699818623657284
rtoes 9.804613649438197
lfemur -7.8863129820923135 -4.199677704994368 -22.28094935015703
ltibia 19.50744507421362
lfoot -11.962337420676121 1.4201519053689458
ltoes -0.39905121321104176
391
root 0 0 0 -4.858346078152163 -3.7973988650041104 2.8299013885855344
lowerback 13.592590493853686 0.9020967307048756 -3.0975396464027183
upperback 2.464406082996483 0.8293487896178908 0.13842535537446354
thorax -4.888314225482445 0.48231187533250147 1.8135346067654114
lowerneck -14.955050011441525 -3.273196345403017 -2.5545419814926213
upperneck 16.535460120359723 -4.196867071391384 2.019724967106115
head 7.591645124878357 -1.9948093007294383 0.5925825043533877
rclavicle -2.2712945578504367E-15 3.2680358974566593E-15
rhumerus -30.791004787618213 -20.54717224860006 -81.40968921331738
rradius 25.246150694446563
rwrist 12.649503222659842
rhand -19.984007258478055 26.91410231061763
rfingers 7.125019999999998
rthumb 6.378169561343468 -3.1555925290224636
lclavicle -5.425774756273789E-15 2.9873383436809725E-15
lhumerus -29.957646198586037 0.3618796631057074 83.76125445101584
lradius 25.0340982273989
lwrist 5.325412618761279
lhand -28.297484390618898 26.639866946337467
lfingers 7.12502000000004
lthumb -1.6902612047210361 56.6773495535889
rfemur -22.324203061183425 -0.4028683837201892 16.71814367607223
rtibia 60.83416517207746
rfoot 6.418673013143801 -4.63191045321955
rtoes 9.216814026910058
lfemur 2.266847039268227 -4.723478946383706 -26.751198847604858
ltibia 18.338777177692847
lfoot -15.398404075375979 0.7146784863655324
ltoes -0.26064715486414514
392
root 0 0 0 -3.2267675240523297 -2.2711568624138696 3.937463007317518
lowerback 12.666632703105801 0.04021777694871975 -4.394006396053046
upperback 2.0137753852911717 -0.5106831034679631 0.16928196195222245
thorax -4.852207353156976 -0.1405162151356063 2.7440659306057515
lowerneck -14.866202403388083 -2.7744512050095347 -2.804779321517259
upperneck 15.449920852193335 -3.427275227393562 2.0139426007192522
head 7.182930435577216 -1.6766256355707205 0.73805670765969
rclavicle -5.957568327823469E-17 3.506568352864086E-15
rhumerus -31.103307990617882 -21.613647768489276 -80.95715920102676
rradius 24.627027694282305
rwrist 12.276920976126537
rhand -19.886488983391192 26.473624396960155
rfingers 7.125020000000002
rthumb 6.47202685344487 -3.6006151775635615
lclavicle 1.9385228517515908E-15 3.59598865678022E-15
lhumerus -27.915148656590844 -3.4824569699409094 83.65125978693253
lradius 29.911241146196637
lwrist 7.835299656526624
lhand -28.31394413400784 25.830727307331387
lfingers 7.125020000000029
lthumb -1.7064044814593764 55.81805139852758
rfemur -25.23507864856208 -0.46480659428221527 15.414854254848635
rtibia 57.40364691783894
rfoot 5.116584919985803 -5.5494874547712065
rtoes 8.084060847072498
lfemur 6.134079538433698 -5.205514722862745 -28.185110526696114
ltibia 17.951101390260156
lfoot -16.840909598799 0.6788988674041958
ltoes 0.3611827884587342
393
root 0 0 0 -2.0469795526075902 -1.313408783771136 3.9350242488627685
lowerback 11.13814613868817 -0.4958774574508945 -4.610635922092822
upperback 1.2483811507614229 -1.258308080445133 0.22878052362247314
thorax -4.8008692189016875 -0.5158290992926593 3.022234209973899
lowerneck -15.840588188872987 -2.6205216204196473 -2.9746982429535995
upperneck 11.749080407114999 -3.0730144531280557 1.824771321921115
head 5.982235173284703 -1.5769762631601132 0.7676477734328471
rclavicle 4.1748980643283887E-16 2.52668764154529E-15
rhumerus -31.646483167774235 -22.729839934523362 -80.6609150538479
rradius 23.770925899534298
rwrist 11.979143746606884
rhand -19.816539940115295 26.065622330040775
rfingers 7.125020000000003
rthumb 6.540143434599305 -4.001889315277808
lclavicle 4.7216546290538636E-15 2.633954163188551E-15
lhumerus -26.995917617776236 -5.183987977171428 83.59078082915906
lradius 32.00148390167496
lwrist 8.723889757825125
lhand -28.220102785148093 25.141483338024845
lfingers 7.125020000000019
lthumb -1.6233637633779558 55.09204099069022
rfemur -29.15463305329305 0.9511513743497557 17.275996316038096
rtibia 51.40719016485162
rfoot 1.099116680338243 -7.729191498497126
rtoes 6.054321260909232
lfemur 8.430091544701295 -5.656277805799885 -28.64585072896857
ltibia 17.056861152615326
lfoot -16.839273627978386 0.37004703527142846
ltoes 0.1959657545775393
394
root 0 0 0 -1.2888715325252758 -0.6839083396468761 3.6022095240125434
lowerback 10.27234514525012 -0.7738330520949438 -4.633133558586244
upperback 0.8193261257180878 -1.6109382873477986 0.4645768308319601
thorax -4.753938740385731 -0.688403287766979 3.317370527277016
lowerneck -15.649092178863112 -2.623177215906791 -3.0084791463840777
upperneck 11.55720832486102 -3.055238130817157 1.885448595244924
head 5.906678395263972 -1.5795126861911093 0.8046951532145759
rclavicle 3.5202652963217236E-16 1.3701505190737176E-15
rhumerus -32.06115173761418 -24.03493453825332 -80.3462726397456
rradius 22.936542860019607
rwrist 11.865805674289916
rhand -19.770852305939577 25.561141138632856
rfingers 7.125020000000003
rthumb 6.584472014870507 -4.511902649824826
lclavicle 4.880453306214305E-15 1.7365358275098422E-15
lhumerus -26.60751332894877 -5.5799611113822705 83.37081337738724
lradius 32.58206379830715
lwrist 8.857330769827126
lhand -28.205541211972584 24.732137028132037
lfingers 7.125020000000014
lthumb -1.6149855628277727 54.67573235427433
rfemur -31.81032347705696 3.1265155036307837 20.60909728578284
rtibia 43.43631773054855
rfoot -4.713388245503265 -10.363510176913437
rtoes 2.977582941483449
lfemur 9.952663635092375 -6.076298518142744 -28.615982109456475
ltibia 16.458456270220687
lfoot -16.379042177225838 0.01777773240068914
ltoes -0.6199310461838152
